<svg width="199" height="199" viewBox="0 0 199 199" fill="none" xmlns="http://www.w3.org/2000/svg">
<path d="M181.696 0H17.3043C7.74742 0 0 7.74742 0 17.3043V181.696C0 191.253 7.74742 199 17.3043 199H181.696C191.253 199 199 191.253 199 181.696V17.3043C199 7.74742 191.253 0 181.696 0Z" fill="#FEF3EB"/>
<path d="M126.86 145.62V60.1551L70.2466 47.587V145.621H64.8914V151.413H132.105V145.621L126.86 145.62ZM111.012 67.4774H119.975V76.6578H111.012V67.4774ZM111.012 82.7779H119.975V91.9579H111.012V82.7779ZM111.012 97.969H119.975V107.149H111.012V97.969ZM111.012 113.269H119.975V122.449H111.012V113.269ZM109.919 145.62H99.6459V128.461H109.919V145.62ZM94.0721 67.4766H103.034V76.657H94.0721V67.4766ZM94.0721 82.7771H103.034V91.957H94.0721V82.7771ZM94.0721 97.9686H103.034V107.149H94.0721V97.9686ZM94.0721 113.269H103.034V122.449H94.0721V113.269ZM77.2419 67.4757H86.2043V76.6561H77.2419V67.4757ZM77.2419 82.7762H86.2043V91.9566H77.2419V82.7762ZM77.2419 97.9677H86.2043V107.148H77.2419V97.9677ZM77.2419 113.268H86.2043V122.448H77.2419V113.268ZM87.1876 128.569H97.4612V145.728H87.1876V128.569Z" fill="#F88634"/>
</svg>
